<svg id="Layer_1" data-name="Layer 1" xmlns="http://www.w3.org/2000/svg" viewBox="0 0 512 512"><defs><style>.cls-1{fill:#f48132;}.cls-2{fill:#f9c596;}</style></defs><title>icon</title><g id="Logo_1" data-name="Logo 1"><path class="cls-1" d="M380.57,57.6a615.06,615.06,0,0,0-104.9-12.46c-8.65-.39-17.31-.52-26.23-.52-4.46,0-8.79,0-13.11.13A632.37,632.37,0,0,0,131.43,55,451.79,451.79,0,0,0,79,67.83V190.44h52.45V110.05a610.18,610.18,0,0,1,91.79-11.72V331.76l32.78,11,32.78-11V97.69a623.14,623.14,0,0,1,91.79,9.74v83H433V72.16A418.82,418.82,0,0,0,380.57,57.6Z"/><polygon class="cls-2" points="380.57 277.24 380.57 316.45 275.67 388.31 256 401.81 236.33 388.31 131.43 316.45 131.43 277.24 78.98 277.24 78.98 345.95 131.43 382.01 236.33 453.87 256 467.38 275.67 453.87 380.57 382.01 433.02 345.95 433.02 277.24 380.57 277.24"/></g></svg>